# xmcd
#
# Track frame offsets:
#	150
#	22887
#	37052
#	58015
#	67315
#	83615
#	99232
#	110692
#	121122
#	131512
#	144560
#	157150
#	197190
#	206902
#
# Disc length: 2896 seconds
#
# Revision: 1
# Processed by: cddbd v1.5.1PL2 Copyright (c) Steve Scherf et al.
# Submitted via: audiograbber 1.83.01
#
DISCID=cd0b4e0e
DTITLE=Various Artist - Great Soul Ballads CD 2
DYEAR=1997
DGENRE=Soul
TTITLE0=The Chi-Lites - Have you seen here
TTITLE1=Percy Sledge - Warm and tender love
TTITLE2=Gladys Knight and The Pips - Midnight train to Georgia
TTITLE3=Al Jarreau - Ain´t no sunshine
TTITLE4=Leo Robinson - Three times a lady
TTITLE5=Bobby Caldwell - What you won´t do for love
TTITLE6=Jackie Wilson - A woman, a lover, a friend
TTITLE7=Maxine brown and Chuck Jackson - Love is a hurtin`thing
TTITLE8=Brook Benton - The same one
TTITLE9=Ben E. King - Spanish Harlem
TTITLE10=Percy Sledge - When a man loves a woman
TTITLE11=Barbara Mason - Yes i´m ready
TTITLE12=Gene Allison - You can make it if you try
TTITLE13=Little Anthony and The Imperials - Hurt so bad
EXTD=Goldies
EXTT0=
EXTT1=
EXTT2=
EXTT3=
EXTT4=
EXTT5=
EXTT6=
EXTT7=
EXTT8=
EXTT9=
EXTT10=
EXTT11=
EXTT12=
EXTT13=
PLAYORDER=
